<svg xmlns="http://www.w3.org/2000/svg" xmlns:xlink="http://www.w3.org/1999/xlink" width="1124" zoomAndPan="magnify" viewBox="0 0 842.88 247.499998" height="330" preserveAspectRatio="xMidYMid meet" version="1.0"><path fill="#000000" d="M 102.582031 220.117188 C 146.671875 220.117188 168.59375 186.398438 168.59375 140.949219 C 168.59375 96.96875 141.90625 70.578125 114.738281 70.578125 C 94.957031 70.578125 79.464844 84.503906 66.597656 114.316406 L 65.882812 114.316406 L 65.882812 15.527344 L 22.507812 15.527344 L 22.507812 215.960938 L 25.84375 215.960938 C 33.707031 208.875 39.902344 206.433594 48.007812 206.433594 C 67.785156 206.433594 82.804688 220.117188 102.582031 220.117188 Z M 751.425781 220.117188 C 701.621094 220.117188 675.164062 194.703125 675.164062 145.101562 C 675.164062 96.96875 702.335938 70.820312 751.425781 70.820312 C 800.761719 70.820312 827.929688 97.945312 827.929688 147.789062 C 827.929688 195.195312 801 220.117188 751.425781 220.117188 Z M 742.371094 211.074219 C 780.664062 211.074219 801.175781 79.863281 761.675781 79.863281 C 738.90625 79.863281 725.539062 116.472656 721.804688 149.472656 C 719.707031 168.003906 716.621094 211.074219 742.371094 211.074219 Z M 292.105469 15.527344 C 289.140625 31.589844 285.070312 41.75 275.34375 50.941406 C 270.839844 50.289062 267.679688 50.023438 263.402344 50.023438 C 253.421875 50.023438 244 51.832031 234.878906 53.480469 L 233.304688 53.574219 C 246.121094 43.542969 251.46875 29.011719 254.261719 15.527344 Z M 93.289062 209.121094 C 85.660156 209.121094 76.605469 205.699219 65.882812 198.859375 L 65.882812 134.59375 C 76.84375 104.054688 89.953125 88.902344 101.628906 88.902344 C 115.691406 88.902344 125.222656 103.320312 125.222656 140.949219 C 125.222656 184.441406 114.972656 209.121094 93.289062 209.121094 Z M 263.402344 70.820312 C 245.050781 70.820312 228.605469 76.929688 212.402344 76.929688 C 208.113281 76.929688 203.820312 76.441406 199.769531 75.222656 L 199.769531 119.691406 C 222.886719 119.691406 235.996094 77.664062 259.113281 77.664062 C 265.546875 77.664062 269.832031 81.574219 272.21875 87.4375 C 264.117188 101.855469 247.035156 111.761719 229.796875 121.644531 C 204.851562 135.949219 179.035156 150.234375 179.035156 178.820312 C 179.035156 205.453125 205.96875 220.117188 233.132812 220.117188 C 247.910156 220.117188 263.875 214.003906 275.078125 201.300781 L 275.078125 215.960938 L 318.453125 215.960938 L 318.453125 118.222656 C 318.453125 79.128906 287.472656 70.820312 263.402344 70.820312 Z M 275.078125 191.773438 C 267.214844 201.300781 257.441406 205.945312 248.386719 205.945312 C 234.324219 205.945312 216.261719 197.15625 216.261719 174.429688 C 216.261719 150.976562 234.984375 136.480469 249.34375 123.601562 C 257.859375 115.960938 267.976562 106.902344 275.128906 95.171875 C 275.605469 98.347656 275.078125 102.832031 275.078125 106.25 Z M 413.851562 220.117188 C 445.546875 220.117188 464.613281 204.480469 464.613281 176.621094 C 464.613281 124.578125 365.949219 121.644531 365.949219 92.566406 C 365.949219 79.375 383.824219 77.664062 391.925781 77.664062 C 438.398438 77.664062 442.019531 119.847656 462.515625 119.847656 L 464.894531 119.847656 L 464.894531 74.644531 C 460.367188 76.355469 452.699219 77.417969 447.929688 77.417969 C 433.15625 77.417969 415.996094 70.820312 393.59375 70.820312 C 374.289062 70.820312 334.488281 74.242188 334.488281 108.9375 C 334.488281 162.941406 433.632812 161.476562 433.632812 192.503906 C 433.632812 202.523438 424.578125 212.542969 411.707031 212.542969 C 383.824219 212.542969 363.328125 171.246094 334.253906 171.246094 L 334.253906 215.960938 C 343.308594 212.542969 351.410156 211.5625 358.796875 211.5625 C 376.4375 211.5625 390.972656 220.117188 413.851562 220.117188 Z M 615.386719 220.496094 C 637.550781 220.496094 652.5625 206.339844 664.957031 212.9375 L 664.957031 171.035156 C 645.894531 171.035156 643.308594 211.132812 617.570312 211.132812 C 596.121094 211.132812 584.046875 177.261719 583.929688 142.566406 C 583.808594 108.113281 596.1875 79.609375 614.777344 79.609375 C 643.613281 79.609375 637.789062 119.847656 659.472656 119.847656 L 664.71875 119.847656 L 664.71875 74.636719 C 640.414062 80.015625 627.714844 70.578125 606.503906 70.578125 C 573.136719 70.578125 539.601562 85.878906 539.601562 140.855469 C 539.601562 185.570312 573.203125 220.496094 615.386719 220.496094 " fill-opacity="1" fill-rule="nonzero"/><path fill="#000000" d="M 524.140625 70.578125 L 524.140625 215.960938 L 480.761719 215.960938 L 480.761719 70.613281 L 524.140625 70.578125 " fill-opacity="1" fill-rule="nonzero"/></svg>