<svg xmlns="http://www.w3.org/2000/svg" xmlns:xlink="http://www.w3.org/1999/xlink" width="1200" zoomAndPan="magnify" viewBox="0 0 900 225" height="300" preserveAspectRatio="xMidYMid meet" version="1.0"><defs><clipPath id="e68a7cd9bc"><path d="M 181 36.40625 L 198 36.40625 L 198 202.15625 L 181 202.15625 Z M 181 36.40625 " clip-rule="nonzero"/></clipPath><clipPath id="1400ecf83d"><path d="M 251 36.40625 L 351 36.40625 L 351 202.15625 L 251 202.15625 Z M 251 36.40625 " clip-rule="nonzero"/></clipPath><clipPath id="49d91b84e2"><path d="M 369 36.40625 L 513 36.40625 L 513 202.15625 L 369 202.15625 Z M 369 36.40625 " clip-rule="nonzero"/></clipPath><clipPath id="249643c856"><path d="M 498 36.40625 L 616 36.40625 L 616 202.15625 L 498 202.15625 Z M 498 36.40625 " clip-rule="nonzero"/></clipPath><clipPath id="bf97f898d5"><path d="M 639 36.40625 L 757 36.40625 L 757 202.15625 L 639 202.15625 Z M 639 36.40625 " clip-rule="nonzero"/></clipPath><clipPath id="b8f260ab52"><path d="M 789 36.40625 L 900 36.40625 L 900 202.15625 L 789 202.15625 Z M 789 36.40625 " clip-rule="nonzero"/></clipPath><clipPath id="4139ca9ebe"><path d="M 0 36.40625 L 144 36.40625 L 144 202.15625 L 0 202.15625 Z M 0 36.40625 " clip-rule="nonzero"/></clipPath></defs><g clip-path="url(#e68a7cd9bc)"><path fill="#016376" d="M 197.375 36.40625 L 181.585938 36.40625 L 181.585938 202.15625 L 197.375 202.15625 Z M 197.375 36.40625 " fill-opacity="1" fill-rule="nonzero"/></g><g clip-path="url(#1400ecf83d)"><path fill="#016376" d="M 266.453125 188.261719 L 266.453125 36.40625 L 251.652344 36.40625 L 251.652344 202.15625 L 350.332031 202.15625 L 350.332031 188.261719 Z M 266.453125 188.261719 " fill-opacity="1" fill-rule="nonzero"/></g><g clip-path="url(#49d91b84e2)"><path fill="#016376" d="M 431.25 36.40625 L 369.082031 202.15625 L 384.871094 202.15625 L 403.621094 151.539062 L 477.632812 151.539062 L 496.382812 202.15625 L 512.171875 202.15625 L 449.015625 36.40625 Z M 408.554688 137.640625 L 440.136719 52.285156 L 471.710938 137.640625 Z M 408.554688 137.640625 " fill-opacity="1" fill-rule="nonzero"/></g><g clip-path="url(#249643c856)"><path fill="#016376" d="M 498.355469 50.300781 L 549.667969 50.300781 L 549.667969 202.15625 L 565.457031 202.15625 L 565.457031 50.300781 L 615.785156 50.300781 L 615.785156 36.40625 L 498.355469 36.40625 Z M 498.355469 50.300781 " fill-opacity="1" fill-rule="nonzero"/></g><g clip-path="url(#bf97f898d5)"><path fill="#016376" d="M 639.46875 50.300781 L 690.785156 50.300781 L 690.785156 202.15625 L 705.585938 202.15625 L 705.585938 50.300781 L 756.898438 50.300781 L 756.898438 36.40625 L 639.46875 36.40625 Z M 639.46875 50.300781 " fill-opacity="1" fill-rule="nonzero"/></g><g clip-path="url(#b8f260ab52)"><path fill="#016376" d="M 805.25 188.261719 L 805.25 123.746094 L 889.128906 123.746094 L 889.128906 109.851562 L 805.25 109.851562 L 805.25 50.300781 L 897.023438 50.300781 L 897.023438 36.40625 L 789.464844 36.40625 L 789.464844 202.15625 L 899.988281 202.15625 L 899.988281 188.261719 Z M 805.25 188.261719 " fill-opacity="1" fill-rule="nonzero"/></g><g clip-path="url(#4139ca9ebe)"><path fill="#016376" d="M 143.101562 36.40625 L 80.929688 202.15625 L 62.183594 202.15625 L 0.0117188 36.40625 L 15.800781 36.40625 L 72.050781 184.289062 L 127.3125 36.40625 Z M 143.101562 36.40625 " fill-opacity="1" fill-rule="nonzero"/></g></svg>