<svg id="Layer_1" data-name="Layer 1" xmlns="http://www.w3.org/2000/svg" viewBox="0 0 163.57 53.81"><defs><style>.cls-1{fill:#5d277f;}</style></defs><title>Logo_Ucell_NEW</title><path class="cls-1" d="M108.59,13.17c-11.92,0-19.26,9-19.26,19.9,0,9.36,5.38,19.76,19.26,19.76,12.59,0,16.17-8.09,17.63-12.61h-6.57A4.4,4.4,0,0,0,116,42.09a9.07,9.07,0,0,1-7.06,3c-9,0-9.09-7.1-9.26-9.54h27.19C127.65,24.64,121.88,13.17,108.59,13.17ZM99.69,29c0-.76.61-8,8.61-8,5.31,0,7.22,3,8.23,8Z"/><path class="cls-1" d="M133.29,0V42.42c.09,7.14,1.4,9.63,10.3,9.63V8.37C143.51,1.34,142.15,0,133.29,0Z"/><path class="cls-1" d="M153.28,0V42.42c.07,7.14,1.39,9.63,10.29,9.63V8.37C163.49,1.34,162.13,0,153.28,0Z"/><path class="cls-1" d="M78,37.45a3.48,3.48,0,0,0-3.26,2.4c-1.29,3.53-3.64,5.24-7.65,5.24-6.22,0-8.59-5.93-8.59-12,0-5.79,2.43-12.09,8.82-12.09,4,0,6.1,1.78,7,4.08a3.27,3.27,0,0,0,3.51,2.4h7.28c-.55-9.73-8.91-14.29-17.72-14.29-13,0-19.23,9.41-19.23,20.35,0,12.25,8.49,19.31,19,19.31,9.19,0,16.71-4.61,18.16-15.38Z"/><path class="cls-1" d="M41.85,33.1c0,13.26-7.84,19.73-21,19.73S0,46.44,0,33.1V0C9.24,0,10.71,2.45,10.79,9.45V33.1c0,5.36,1.37,10.65,10.1,10.65,7.69,0,10.17-3.36,10.17-10.65V0c9.23,0,10.7,2.45,10.79,9.45Z"/></svg>