<svg width="209" height="62" viewBox="0 0 209 62" fill="none" xmlns="http://www.w3.org/2000/svg">
<path fill-rule="evenodd" clip-rule="evenodd" d="M19.0462 3.87549L12.6971 7.75037V38.7501L12.6973 38.75L12.6972 38.7505L38.094 54.2504L44.4433 50.3754L19.0464 34.8756L19.0462 34.8754L19.0464 34.8753L19.0462 3.87549Z" fill="#1A56A2"/>
<path fill-rule="evenodd" clip-rule="evenodd" d="M6.34915 11.625L0 15.4999V46.4998L0.000310766 46.4996L0.000103589 46.5L25.3969 62L31.7462 58.125L6.34926 42.6251L6.34915 42.625L6.34926 42.6249L6.34915 11.625Z" fill="#1A56A2"/>
<path fill-rule="evenodd" clip-rule="evenodd" d="M31.7463 58.125L38.0955 54.2501V23.2502L38.0951 23.2504L38.0955 23.2501L12.6985 7.75L6.34927 11.625L31.7462 27.1249L31.7464 27.1251H31.7462L31.7463 58.125Z" fill="#EE7D18"/>
<path fill-rule="evenodd" clip-rule="evenodd" d="M44.4447 50.375L50.7939 46.5001V15.5002L50.7935 15.5006L50.7936 15.5001L25.3968 0L19.0475 3.8751L44.4446 19.3751H44.4447H44.4446L44.4447 50.375Z" fill="#EE7D18"/>
<path d="M67.4961 29.9787H68.7604C69.4497 29.9787 70.1136 29.9584 70.7522 29.918C71.3906 29.8775 71.9653 29.7425 72.4759 29.5131C72.9867 29.2837 73.3953 28.9192 73.7017 28.4196C74.0081 27.9204 74.1614 27.1984 74.1614 26.2533C74.1614 25.2815 74.0145 24.5326 73.721 24.006C73.4271 23.4797 73.0378 23.0949 72.5523 22.852C72.0673 22.6091 71.4927 22.4673 70.8288 22.4268C70.1647 22.3862 69.4753 22.3661 68.7604 22.3661H67.4961V29.9787ZM59.9883 15.9683H71.4799C73.0378 15.9683 74.4615 16.164 75.7511 16.5556C77.0407 16.9469 78.1452 17.5475 79.0645 18.3573C79.9839 19.1671 80.6989 20.2067 81.2097 21.4753C81.7205 22.744 81.9757 24.2559 81.9757 26.0105C81.9757 29.6278 81.0947 32.2597 79.3325 33.9065C77.5706 35.5532 75.0423 36.3765 71.7483 36.3765H67.4961V46.4996H59.9883V15.9683ZM91.3995 29.6546H92.1273C92.7401 29.6546 93.3532 29.6142 93.9661 29.5333C94.5788 29.4522 95.1343 29.2768 95.6322 29.007C96.1302 28.7369 96.5388 28.3522 96.8581 27.8529C97.1773 27.3534 97.3368 26.6852 97.3368 25.8486C97.3368 25.0117 97.1773 24.3436 96.8581 23.8441C96.5388 23.3447 96.1302 22.96 95.6322 22.69C95.1343 22.4202 94.5788 22.2447 93.9661 22.1637C93.3532 22.0825 92.7401 22.0422 92.1273 22.0422H91.3995V29.6546ZM107.909 46.4996H98.5627L91.4761 34.7569H91.3995V46.4996H83.8915V15.9683H95.1153C96.5453 15.9683 97.8732 16.1506 99.0989 16.5151C100.325 16.8794 101.385 17.4462 102.278 18.2156C103.172 18.9849 103.874 19.9636 104.385 21.1512C104.896 22.339 105.151 23.7429 105.151 25.3626C105.151 26.4154 105.017 27.4209 104.749 28.3791C104.481 29.3376 104.079 30.2014 103.542 30.9706C103.006 31.74 102.342 32.3879 101.55 32.9144C100.759 33.4408 99.8524 33.7985 98.8308 33.9875L107.909 46.4996ZM116.031 46.4996H108.523V15.9683H116.031V46.4996ZM142.233 39.778V46.4996H117.487L131.161 22.69H119.823V15.9683H143.726L130.128 39.778H142.233ZM148.361 15.9683H155.755L161.615 32.2868L167.821 15.9683H175.291L179.658 46.4996H172.15L170.042 28.9258H169.966L163.033 46.4996H160.045L153.418 28.9258H153.341L150.928 46.4996H143.459L148.361 15.9683ZM194.023 25.4031H193.946L190.843 35.1213H197.087L194.023 25.4031ZM188.775 41.1952L186.783 46.4996H178.815L189.924 15.9683H198.122L209 46.4996H200.994L199.117 41.1952H188.775Z" fill="#323234"/>
</svg>
