<svg width="233" height="43" viewBox="0 0 233 43" fill="none" xmlns="http://www.w3.org/2000/svg">
<path d="M51.0965 0H47.0088V43H51.0965V0Z" fill="#F0EFEF"/>
<path d="M68.9807 39.3952V0H65.1484V43H90.6967V39.3952H68.9807Z" fill="#F0EFEF"/>
<path d="M111.646 0L95.5508 43H99.6385L104.493 29.8683H123.654L128.508 43H132.596L116.245 0H111.646ZM105.77 26.2635L113.946 4.11976L122.121 26.2635H105.77Z" fill="#F0EFEF"/>
<path d="M129.019 3.60479H142.304V43H146.391V3.60479H159.421V0H129.019V3.60479Z" fill="#F0EFEF"/>
<path d="M165.553 3.60479H178.838V43H182.67V3.60479H195.955V0H165.553V3.60479Z" fill="#F0EFEF"/>
<path d="M208.473 39.3952V22.6587H230.189V19.0539H208.473V3.60479H232.233V0H204.386V43H233V39.3952H208.473Z" fill="#F0EFEF"/>
<path d="M37.045 0L20.9496 43H19.9276H17.1173H16.0954L0 0H4.08772L18.6502 38.3653L32.9572 0H37.045Z" fill="#F0EFEF"/>
</svg>
